<?xml version="1.0" encoding="UTF-8"?>
<svg xmlns="http://www.w3.org/2000/svg" xmlns:xlink="http://www.w3.org/1999/xlink" viewBox="0 0 40 40" width="40px" height="40px">
<g id="surface7434503">
<path style=" stroke:none;fill-rule:nonzero;fill:rgb(100%,100%,100%);fill-opacity:1;" d="M 20 1.601562 C 9.847656 1.601562 1.601562 9.847656 1.601562 20 C 1.601562 30.152344 9.847656 38.398438 20 38.398438 C 30.152344 38.398438 38.398438 30.152344 38.398438 20 C 38.398438 9.847656 30.152344 1.601562 20 1.601562 Z M 20 3.199219 C 29.289062 3.199219 36.800781 10.710938 36.800781 20 C 36.800781 29.289062 29.289062 36.800781 20 36.800781 C 10.710938 36.800781 3.199219 29.289062 3.199219 20 C 3.199219 10.710938 10.710938 3.199219 20 3.199219 Z M 29.632812 8.792969 C 29.394531 8.785156 29.167969 8.882812 29.011719 9.058594 L 20.945312 17.796875 C 20.648438 17.667969 20.324219 17.601562 20 17.601562 C 18.675781 17.601562 17.601562 18.675781 17.601562 20 C 17.601562 21.324219 18.675781 22.398438 20 22.398438 C 20.132812 22.398438 20.269531 22.390625 20.398438 22.367188 L 23.300781 27.589844 C 23.4375 27.839844 23.699219 27.996094 23.988281 28 C 24.273438 28.003906 24.539062 27.855469 24.6875 27.613281 C 24.835938 27.367188 24.839844 27.0625 24.699219 26.8125 L 21.796875 21.585938 C 22.183594 21.148438 22.398438 20.585938 22.398438 20 C 22.398438 19.609375 22.304688 19.226562 22.121094 18.878906 L 30.1875 10.140625 C 30.40625 9.914062 30.464844 9.578125 30.347656 9.285156 C 30.226562 8.996094 29.945312 8.800781 29.632812 8.792969 Z M 29.632812 8.792969 "/>
</g>
</svg>
