<?xml version="1.0" encoding="UTF-8"?>
<svg xmlns="http://www.w3.org/2000/svg" xmlns:xlink="http://www.w3.org/1999/xlink" viewBox="0 0 40 40" width="40px" height="40px">
<g id="surface7395422">
<path style=" stroke:none;fill-rule:nonzero;fill:rgb(100%,100%,100%);fill-opacity:1;" d="M 20 3.332031 C 19.554688 3.332031 19.128906 3.511719 18.816406 3.828125 L 2.003906 18.496094 C 1.792969 18.652344 1.667969 18.902344 1.667969 19.167969 C 1.667969 19.625 2.039062 20 2.5 20 L 6.667969 20 L 6.667969 33.332031 C 6.667969 34.253906 7.414062 35 8.332031 35 L 15 35 C 15.921875 35 16.667969 34.253906 16.667969 33.332031 L 16.667969 23.332031 L 23.332031 23.332031 L 23.332031 33.332031 C 23.332031 34.253906 24.078125 35 25 35 L 31.667969 35 C 32.585938 35 33.332031 34.253906 33.332031 33.332031 L 33.332031 20 L 37.5 20 C 37.960938 20 38.332031 19.625 38.332031 19.167969 C 38.332031 18.902344 38.207031 18.652344 37.996094 18.496094 L 21.195312 3.835938 C 21.191406 3.835938 21.1875 3.832031 21.183594 3.828125 C 20.871094 3.511719 20.445312 3.332031 20 3.332031 Z M 20 3.332031 "/>
</g>
</svg>
