<svg xmlns="http://www.w3.org/2000/svg"  viewBox="0 0 40 40" width="40px" height="40px"><path fill="#f76d6d" d="M11.5 20.5H28.5V38.5H11.5z"/><path fill="#c74343" d="M28,21v17H12V21H28 M29,20H11v19h18V20L29,20z"/><path fill="#f7a3a3" d="M6,23.5c-0.827,0-1.5-0.673-1.5-1.5v-3.542L7.421,1.5h25.157l2.929,17.043L35.5,22 c0,0.827-0.673,1.5-1.5,1.5H6z"/><path fill="#c74343" d="M32.157,2L35,18.543V22c0,0.551-0.449,1-1,1H6c-0.551,0-1-0.449-1-1v-3.457L7.843,2H32.157 M33,1H7 L4,18.458V22c0,1.105,0.895,2,2,2h28c1.105,0,2-0.895,2-2v-3.542L33,1L33,1z"/><path fill="#c74343" d="M35.353,17.643C31.367,15.712,30.5,11.392,30.5,8c0-2.664,1.345-4.803,2.186-5.879L35.353,17.643z M7.322,2.075C8.157,3.087,9.5,5.156,9.5,8c0,3.392-0.867,7.712-4.853,9.643L7.322,2.075z"/><path fill="#c74343" d="M7.616,3.318C8.298,4.391,9,5.985,9,8c0,2.967-0.685,6.674-3.68,8.681L7.616,3.318 M32.399,3.406 l2.281,13.275C31.685,14.674,31,10.967,31,8C31,6.127,31.708,4.524,32.399,3.406 M33,1c0,0-3,2.87-3,7 c0,3.991,1.163,8.693,6,10.458L33,1L33,1z M7,1L4,18.458C8.837,16.693,10,11.991,10,8C10,3.599,7,1,7,1L7,1z"/><path fill="#66798f" d="M32.943,16.557c-1.541-1.511-2.339-3.51-2.696-5.557H9.753c-0.357,2.047-1.155,4.046-2.696,5.557 c-0.244,0.254-0.503,0.497-0.789,0.716L18,20h4l11.732-2.727C33.445,17.054,33.187,16.811,32.943,16.557z"/><path fill="#f7a3a3" d="M16 20H24V29H16zM16 30H24V38H16z"/><path fill="#ffcaca" d="M19 15L17 25 23 25 21 15z"/><path fill="#ffeea3" d="M26 13A3 1.5 0 1 0 26 16 3 1.5 0 1 0 26 13zM14 13A3 1.5 0 1 0 14 16 3 1.5 0 1 0 14 13z"/></svg>