<?xml version="1.0" encoding="UTF-8"?>
<svg xmlns="http://www.w3.org/2000/svg" xmlns:xlink="http://www.w3.org/1999/xlink" viewBox="0 0 40 40" width="40px" height="40px">
<g id="surface7472358">
<path style=" stroke:none;fill-rule:nonzero;fill:rgb(100%,100%,100%);fill-opacity:1;" d="M 16.109375 3.332031 L 15.292969 7.539062 C 13.917969 8.058594 12.65625 8.785156 11.550781 9.691406 L 7.511719 8.296875 L 3.621094 15.035156 L 6.855469 17.847656 C 6.730469 18.613281 6.667969 19.320312 6.667969 20 C 6.667969 20.679688 6.734375 21.386719 6.855469 22.152344 L 6.855469 22.15625 L 3.621094 24.96875 L 7.511719 31.703125 L 11.550781 30.3125 C 12.65625 31.21875 13.917969 31.941406 15.292969 32.460938 L 16.109375 36.667969 L 23.890625 36.667969 L 24.707031 32.460938 C 26.082031 31.941406 27.339844 31.21875 28.445312 30.308594 L 32.488281 31.703125 L 36.375 24.96875 L 33.144531 22.152344 C 33.269531 21.386719 33.332031 20.679688 33.332031 20 C 33.332031 19.320312 33.269531 18.613281 33.144531 17.851562 L 33.144531 17.847656 L 36.378906 15.03125 L 32.488281 8.296875 L 28.449219 9.6875 C 27.34375 8.78125 26.082031 8.058594 24.707031 7.539062 L 23.890625 3.332031 Z M 18.855469 6.667969 L 21.140625 6.667969 L 21.789062 10 L 23.527344 10.65625 C 24.578125 11.050781 25.519531 11.59375 26.335938 12.265625 L 27.773438 13.445312 L 30.976562 12.34375 L 32.117188 14.320312 L 29.558594 16.546875 L 29.851562 18.378906 L 29.851562 18.382812 C 29.957031 19.007812 30 19.53125 30 20 C 30 20.46875 29.957031 20.992188 29.851562 21.617188 L 29.558594 23.449219 L 32.117188 25.675781 L 30.972656 27.65625 L 27.773438 26.554688 L 26.332031 27.734375 C 25.515625 28.40625 24.578125 28.949219 23.527344 29.34375 L 23.523438 29.34375 L 21.785156 30 L 21.140625 33.332031 L 18.855469 33.332031 L 18.210938 30 L 16.472656 29.34375 C 15.421875 28.949219 14.480469 28.40625 13.664062 27.734375 L 12.226562 26.554688 L 9.023438 27.65625 L 7.878906 25.679688 L 10.441406 23.449219 L 10.144531 21.625 L 10.144531 21.621094 C 10.046875 20.992188 10 20.46875 10 20 C 10 19.53125 10.042969 19.007812 10.144531 18.382812 L 10.441406 16.550781 L 7.878906 14.324219 L 9.023438 12.34375 L 12.226562 13.445312 L 13.664062 12.265625 C 14.480469 11.59375 15.421875 11.050781 16.472656 10.65625 L 18.210938 10 Z M 20 13.332031 C 16.339844 13.332031 13.332031 16.339844 13.332031 20 C 13.332031 23.660156 16.339844 26.667969 20 26.667969 C 23.660156 26.667969 26.667969 23.660156 26.667969 20 C 26.667969 16.339844 23.660156 13.332031 20 13.332031 Z M 20 16.667969 C 21.851562 16.667969 23.332031 18.148438 23.332031 20 C 23.332031 21.851562 21.851562 23.332031 20 23.332031 C 18.148438 23.332031 16.667969 21.851562 16.667969 20 C 16.667969 18.148438 18.148438 16.667969 20 16.667969 Z M 20 16.667969 "/>
</g>
</svg>
